<svg width="20" height="20" viewBox="0 0 20 20" fill="none" xmlns="http://www.w3.org/2000/svg">
<path d="M12.8396 13.55L14.2396 12.15C14.4281 11.9638 14.6667 11.8363 14.9263 11.7831C15.1859 11.7298 15.4554 11.7531 15.7021 11.85L17.4083 12.5313C17.6576 12.6324 17.8713 12.8051 18.0226 13.0276C18.1738 13.25 18.2559 13.5123 18.2583 13.7813V16.9063C18.2569 17.0893 18.2184 17.2701 18.1452 17.4378C18.0721 17.6055 17.9657 17.7567 17.8326 17.8823C17.6995 18.0078 17.5423 18.1051 17.3706 18.1683C17.1988 18.2315 17.0161 18.2593 16.8333 18.25C4.87707 17.5063 2.46457 7.38128 2.00832 3.50628C1.98714 3.31599 2.0065 3.12337 2.0651 2.94109C2.12371 2.75882 2.22025 2.59102 2.34837 2.44874C2.47648 2.30645 2.63327 2.1929 2.80842 2.11557C2.98357 2.03823 3.17311 1.99885 3.36457 2.00003H6.38332C6.6527 2.00082 6.91569 2.08219 7.13845 2.23367C7.3612 2.38515 7.53355 2.5998 7.63332 2.85003L8.31457 4.55628C8.41473 4.80194 8.44028 5.07168 8.38804 5.33178C8.3358 5.59189 8.20807 5.83084 8.02082 6.01878L6.62082 7.41878C6.62082 7.41878 7.42707 12.875 12.8396 13.55Z" fill="#2B7AF1"/>
</svg>
