<svg width="30" height="30" viewBox="0 0 30 30" fill="none" xmlns="http://www.w3.org/2000/svg">
<path fill-rule="evenodd" clip-rule="evenodd" d="M24.2929 4.29289C24.6834 3.90237 25.3166 3.90237 25.7071 4.29289C26.0976 4.68342 26.0976 5.31658 25.7071 5.70711L16.4142 15L25.7071 24.2929C26.0976 24.6834 26.0976 25.3166 25.7071 25.7071C25.3166 26.0976 24.6834 26.0976 24.2929 25.7071L15 16.4142L5.70711 25.7071C5.31658 26.0976 4.68342 26.0976 4.29289 25.7071C3.90237 25.3166 3.90237 24.6834 4.29289 24.2929L13.5858 15L4.29289 5.70711C3.90237 5.31658 3.90237 4.68342 4.29289 4.29289C4.68342 3.90237 5.31658 3.90237 5.70711 4.29289L15 13.5858L24.2929 4.29289Z" fill="#111111" fill-opacity="0.5"/>
</svg>
